<?xml version="1.0" encoding="UTF-8"?>
<svg id="Capa_2" data-name="Capa 2" xmlns="http://www.w3.org/2000/svg" xmlns:xlink="http://www.w3.org/1999/xlink" viewBox="0 0 1393.18 546.15">
  <defs>
    <style>
      .cls-1 {
        fill: url(#Degradado_sin_nombre_25-2);
      }

      .cls-2, .cls-3, .cls-4 {
        stroke: #000;
        stroke-miterlimit: 10;
      }

      .cls-5 {
        fill: url(#Degradado_sin_nombre_25);
      }

      .cls-3 {
        fill: #fff;
      }

      .cls-4 {
        fill: url(#Degradado_sin_nombre_141);
      }
    </style>
    <linearGradient id="Degradado_sin_nombre_141" data-name="Degradado sin nombre 141" x1="350.06" y1="130.59" x2="856.12" y2="504.99" gradientUnits="userSpaceOnUse">
      <stop offset="0" stop-color="#fe9900"/>
      <stop offset=".39" stop-color="#fe9600"/>
      <stop offset=".62" stop-color="#fe8e00"/>
      <stop offset=".79" stop-color="#fe8000"/>
      <stop offset=".95" stop-color="#fe6d00"/>
      <stop offset="1" stop-color="#fe6500"/>
    </linearGradient>
    <linearGradient id="Degradado_sin_nombre_25" data-name="Degradado sin nombre 25" x1="0" y1="285.1" x2="362.58" y2="285.1" gradientUnits="userSpaceOnUse">
      <stop offset="0" stop-color="#abffff"/>
      <stop offset="1" stop-color="#0090b2"/>
    </linearGradient>
    <linearGradient id="Degradado_sin_nombre_25-2" data-name="Degradado sin nombre 25" x1="1029.18" y1="303.88" x2="1393.18" y2="303.88" xlink:href="#Degradado_sin_nombre_25"/>
  </defs>
  <g id="Capa_1-2" data-name="Capa 1">
    <g>
      <g>
        <path class="cls-4" d="m1020.51,545.64c-211.79-2.37-423.58-4.75-635.37-7.12C487.16,359.34,589.17,180.16,691.18.99c109.78,181.55,219.56,363.1,329.33,544.65Z"/>
        <path class="cls-3" d="m949.61,514.78c-169.87-1.97-339.75-3.94-509.62-5.91,84.46-141.91,168.93-283.81,253.39-425.72,85.41,143.87,170.82,287.75,256.23,431.62Z"/>
        <path class="cls-2" d="m731.38,272.91c-.45,13.3-2.97,34.89-14.35,58.36-7.05,14.55-15.47,25.59-22.47,33.38-7.03-7.87-15.39-18.92-22.47-33.38-11.34-23.17-14.18-44.49-14.85-57.92,5.49-53.85,22.86-91.34,37.32-91.3,14.43.04,31.5,37.46,36.82,90.86Z"/>
        <circle class="cls-2" cx="694.3" cy="427.99" r="29.76"/>
      </g>
      <path class="cls-5" d="m0,358.61C70.56,250.76,141.11,142.9,211.67,35.04c-.18,32.22-.36,64.45-.53,96.67-35.72,56.25-71.44,112.49-107.16,168.74,40.03.59,80.06,1.17,120.08,1.76,1.45-91.4,2.89-182.79,4.34-274.19,25.15.45,50.31.9,75.46,1.35.65,90.61,1.3,181.21,1.95,271.82,11.69.26,23.39.52,35.08.78,7.23,22.38,14.46,44.76,21.7,67.14-18.79-.69-37.58-1.39-56.37-2.08.83,58.38,1.65,116.77,2.48,175.15-30.46-.25-60.91-.49-91.37-.74.19-59.48.39-118.97.58-178.45-72.63-1.46-145.27-2.92-217.9-4.37Z"/>
      <path class="cls-1" d="m1087.18,144.99c1.33-7,2.67-14,4-21,56.33,1.33,112.67,2.67,169,4-59.67,57.33-119.33,114.67-179,172,14-3.36,33.94-6.91,58-7,21.15-.08,44.21-.17,66,9,34.22,14.4,78.35,57.1,69,108-6.44,35.05-36.3,63.41-70,71-45.75,10.31-97.31-17.94-118-70h-51c-.03,13.36,1.79,40.01,18,67,23.63,39.35,61.75,52.67,77,58,11.81,4.13,81.78,27.03,146-16,3.36-2.25,80.57-55.89,70-142-7.85-63.94-60.61-117.39-130-129,59-60.67,118-121.33,177-182-120-1.67-240-3.33-360-5-1.33,27-2.67,54-4,81,19.33.67,38.67,1.33,58,2Z"/>
    </g>
  </g>
</svg>